<svg width="68" height="63" viewBox="0 0 68 63" fill="none" xmlns="http://www.w3.org/2000/svg">
<path d="M65.5 31.5C65.5 48.0464 51.867 61.5 35 61.5C18.133 61.5 4.5 48.0464 4.5 31.5C4.5 14.9536 18.133 1.5 35 1.5C51.867 1.5 65.5 14.9536 65.5 31.5Z" stroke="white" stroke-width="3"/>
<path d="M9 46L11.5 41.5L18 37L21.5 43.5L20.5 48.5L22 54L20 56.5" stroke="white" stroke-width="2"/>
<path d="M64.5 21.5C71.2703 9.18014 62.9948 4.09851 41 11.8506" stroke="white" stroke-width="2"/>
<path d="M29 60.5L31 55L35.5 54L40 49L42.5 56L48 59" stroke="white" stroke-width="2"/>
<path d="M60 14L55.5 16L53.5 20.5L48 22L44 29L51 32L53.5 38L52.5 44L54.5 49.5L57.5 44L62.5 40H65.5" stroke="white" stroke-width="2"/>
<path d="M26.5 3.5L30 5.5H33L37.5 8L39.5 5L42 3" stroke="white" stroke-width="2"/>
<path d="M12 52.5C-0.000441551 54 -4.07004 45.5 10.9304 31" stroke="white" stroke-width="2"/>
<path d="M23.5 26.5C23.5 26.5 23.5 29.5 23.5 30.5C23.5 31.5 22 33 22 32.5C22 32 15 21 15 20.5C15 20 16.8076 18.8115 17.5 19C18.1924 19.1885 20.5 21.5 20.5 21.5M15 27C15 26.5 16.5 25 16.5 25L32.5 14.5C32.5 14.5 38 14.5 38.5 14.5C39 14.5 36 19.5 36 19.5L18.5 28C18.5 28 16.5 29 16 29C15.5 29 15 27.5 15 27ZM18.5 10.5C18.5 10.5 20 9 21 9C22 9 26.344 12.009 30.5 14.5L25 18L18.5 10.5ZM34.5 21.5C34.5 21.5 35.0001 32 34.5 32.5C33.9999 33 32 34.5 32 34C32 33.5 28.5 24 28.5 24L34.5 21.5Z" stroke="white" stroke-width="2"/>
</svg>
