<svg width="36" height="36" viewBox="0 0 36 36" fill="none" xmlns="http://www.w3.org/2000/svg">
<path d="M9 5.67335C13.2347 4.50283 15.5 4.67346 18 7.67349" stroke="white" stroke-width="2"/>
<path d="M25.5 12.5C25.5 19.1091 19.9222 24.5 13 24.5C6.07778 24.5 0.5 19.1091 0.5 12.5C0.5 5.89088 6.07778 0.5 13 0.5C19.9222 0.5 25.5 5.89088 25.5 12.5Z" stroke="white"/>
<path d="M20 23C20 23 20.8048 23.939 22 25.2687M23 20C23 20 34.5 29 34.5 31.5C34.5 34 34 34.5 31.5 34C29.7476 33.6495 24.8015 28.3856 22 25.2687M25 22L22 25.2687" stroke="white" stroke-width="2"/>
<path d="M20 9V9.02645" stroke="white" stroke-width="2" stroke-linecap="round"/>
</svg>
